# xmcd
# 
# Track frame offsets:
#     150
#     26738
#     65273
#     121863
#     151792
# 
# Disc length: 2841
# 
# Revision: 1
# Processed by: cddbd v1.5.2PL0 Copyright (c) Steve Scherf et al.
# Submitted via: BonkEnc v1.0.8
# 
DISCID=330b1705
DTITLE=Atomic - The Bikini Tapes - Disc 1
DYEAR=2004
DGENRE=Contemporary Jazz
TTITLE0=Geometrical Restlessness
TTITLE1=Feets from Above
TTITLE2=Kerosene
TTITLE3=Leave Stacy
TTITLE4=Boom Boom
EXTD=YEAR: 2004
EXTT0=
EXTT1=
EXTT2=
EXTT3=
EXTT4=
PLAYORDER=
